Screens
 
http://bayimg.com/iaPaPAadA
 
http://bayimg.com/jaPAAaadA

Seeding Time 24/7

Don't Forget To Say Thanks If You Like My Post



-=Media Info=-

Format : Windows Media
File size : 1.14 GiB
Duration : 35mn 21s
Overall bit rate mode : Constant
Overall bit rate : 4 619 Kbps
Maximum Overall bit rate : 4 634 Kbps
Encoded date : UTC 2010-07-23 19:23:28.790

Video
ID : 2
Format : VC-1
Format profile : MP@HL
Codec ID : WMV3
Codec ID/Info : Windows Media Video 9
Codec ID/Hint : WMV3
Description of the codec : Windows Media Video 9 - Professional
Duration : 35mn 21s
Bit rate mode : Constant
Bit rate : 4 500 Kbps
Width : 1 280 pixels
Height : 720 pixels
Display aspect ratio : 16:9
Frame rate : 29.970 fps
Bit depth : 8 bits
Scan type : Progressive
Compression mode : Lossy
Bits/(Pixel*Frame) : 0.163
Stream size : 1.11 GiB (97%)
Language : Hungarian

Audio
ID : 1
Format : WMA
Format version : Version 2
Codec ID : 161
Codec ID/Info : Windows Media Audio
Description of the codec : Windows Media Audio 9.2 - 96 kbps, 44 kHz, stereo 1-pass CBR
Duration : 35mn 21s
Bit rate mode : Constant
Bit rate : 96.0 Kbps
Channel(s) : 2 channels
Sampling rate : 44.1 KHz
Bit depth : 16 bits
Stream size : 24.3 MiB (2%)
Language : English (US)